<svg aria-hidden="true" version="1.1"
     xmlns="http://www.w3.org/2000/svg">
  <symbol id="arrow-next">
    <path fill-rule="evenodd" clip-rule="evenodd"
          d="M5.41667 4.2625L11.0824 10L5.41667 15.7375L7.16093 17.5L14.5833 10L7.16093 2.5L5.41667 4.2625Z"
          fill="#4F5660"/>
  </symbol>

  <symbol id="person">
    <g fill="none" fill-rule="evenodd">
      <path fill="currentColor" fill-rule="nonzero"
            d="M0.5,0 L0.5,1.5 C0.5,5.65 2.71,9.28 6,11.3 L6,16 L21,16 L21,14 C21,11.34 15.67,10 13,10 C13,10 12.83,10 12.75,10 C8,10 4,6 4,1.5 L4,0 L0.5,0 Z M13,0 C10.790861,0 9,1.790861 9,4 C9,6.209139 10.790861,8 13,8 C15.209139,8 17,6.209139 17,4 C17,1.790861 15.209139,0 13,0 Z"
            transform="translate(2 4)"></path>
      <path d="M0,0 L24,0 L24,24 L0,24 L0,0 Z M0,0 L24,0 L24,24 L0,24 L0,0 Z M0,0 L24,0 L24,24 L0,24 L0,0 Z"></path>
    </g>
  </symbol>

  <symbol id="nitro">
    <path fill="currentColor"
          d="M2.98966977,9.35789159 C2.98966977,9.77582472 2.63442946,10.1240466 2.20807287,10.1240466 L1.78171628,10.1240466 C1.35535969,10.1240466 0.999948837,9.77582472 0.999948837,9.35789159 C0.999948837,8.93995846 1.35535969,8.59173658 1.78171628,8.59173658 L2.20807287,8.59173658 C2.63442946,8.59173658 2.98966977,8.93995846 2.98966977,9.35789159 Z M22.2467643,9.14892503 C24.0942527,12.9800344 22.3888264,17.5772989 18.3384388,19.3882867 C14.4302837,21.1297305 9.74036124,19.457998 7.9638186,15.6268886 C7.60857829,14.8607335 7.3954,14.0248673 7.32428372,13.189001 L5.76091938,13.189001 C5.33456279,13.189001 4.97932248,12.840612 4.97932248,12.4226788 C4.97932248,12.0047457 5.33456279,11.6565238 5.76091938,11.6565238 L8.03493488,11.6565238 C8.46129147,11.6565238 8.81653178,11.3083019 8.81653178,10.8903688 C8.81653178,10.4724357 8.46129147,10.1240466 8.03493488,10.1240466 L4.41090388,10.1240466 C3.98454729,10.1240466 3.62913643,9.77582472 3.62913643,9.35789159 C3.62913643,8.93995846 3.98454729,8.59173658 4.41090388,8.59173658 L9.45606667,8.59173658 C9.88242326,8.59173658 10.2376636,8.24334752 10.2376636,7.82541439 C10.2376636,7.40748126 9.88242326,7.05925937 9.45606667,7.05925937 L7.3954,7.05925937 C6.75586512,7.05925937 6.18727597,6.57161499 6.18727597,5.87517123 C6.18727597,5.24827153 6.68474884,4.69091591 7.3954,4.69091591 L15.4250589,4.69091591 C18.267493,4.8303384 20.9676946,6.43235968 22.2467643,9.14892503 Z M13.2662961,8.38056332 C11.0193969,9.3919615 10.0341721,11.9973566 11.065955,14.1998642 C12.097738,16.4023718 14.755645,17.3681317 17.0025442,16.3567335 C19.249614,15.3453354 20.2346682,12.7399402 19.2028853,10.5374326 C18.1711023,8.33492503 15.5131953,7.36916515 13.2662961,8.38056332 Z M16.8462589,9.84548582 L18.2673907,12.2138293 C18.338507,12.3530846 18.338507,12.4227958 18.2673907,12.5620512 L16.8462589,14.9303946 C16.7751426,15.0696499 16.6330806,15.0696499 16.5619643,15.0696499 L13.7906465,15.0696499 C13.6485845,15.0696499 13.5774682,14.9999387 13.5065225,14.9303946 L12.0852202,12.5620512 C12.0142744,12.4227958 12.0142744,12.3530846 12.0852202,12.2138293 L13.5065225,9.84548582 C13.5774682,9.7062305 13.7197008,9.7062305 13.7906465,9.7062305 L16.5619643,9.7062305 C16.7041969,9.63651925 16.7751426,9.7062305 16.8462589,9.84548582 Z"></path>
  </symbol>

  <symbol id="logo">
    <path fill="currentColor"
          d="M20.6644 20C20.6644 20 19.8014 18.9762 19.0822 18.0714C22.2226 17.1905 23.4212 15.2381 23.4212 15.2381C22.4384 15.881 21.5034 16.3334 20.6644 16.6429C19.4658 17.1429 18.3151 17.4762 17.1884 17.6667C14.887 18.0953 12.7774 17.9762 10.9795 17.6429C9.61301 17.381 8.43836 17 7.45548 16.6191C6.90411 16.4048 6.30479 16.1429 5.70548 15.8096C5.63356 15.7619 5.56164 15.7381 5.48973 15.6905C5.44178 15.6667 5.41781 15.6429 5.39384 15.6191C4.96233 15.381 4.7226 15.2143 4.7226 15.2143C4.7226 15.2143 5.87329 17.1191 8.91781 18.0238C8.19863 18.9286 7.31164 20 7.31164 20C2.0137 19.8333 0 16.381 0 16.381C0 8.7144 3.45205 2.50017 3.45205 2.50017C6.90411 -0.07123 10.1884 0.000197861 10.1884 0.000197861L10.4281 0.285909C6.11301 1.52399 4.12329 3.40493 4.12329 3.40493C4.12329 3.40493 4.65068 3.11921 5.53767 2.71446C8.10274 1.59542 10.1404 1.2859 10.9795 1.21447C11.1233 1.19066 11.2432 1.16685 11.387 1.16685C12.8493 0.976379 14.5034 0.92876 16.2295 1.11923C18.5068 1.38114 20.9521 2.0478 23.4452 3.40493C23.4452 3.40493 21.5514 1.61923 17.476 0.381146L17.8116 0.000197861C17.8116 0.000197861 21.0959 -0.07123 24.5479 2.50017C24.5479 2.50017 28 8.7144 28 16.381C28 16.381 25.9623 19.8333 20.6644 20ZM9.51712 8.88106C8.15068 8.88106 7.07192 10.0715 7.07192 11.5239C7.07192 12.9763 8.17466 14.1667 9.51712 14.1667C10.8836 14.1667 11.9623 12.9763 11.9623 11.5239C11.9863 10.0715 10.8836 8.88106 9.51712 8.88106ZM18.2671 8.88106C16.9007 8.88106 15.8219 10.0715 15.8219 11.5239C15.8219 12.9763 16.9247 14.1667 18.2671 14.1667C19.6336 14.1667 20.7123 12.9763 20.7123 11.5239C20.7123 10.0715 19.6336 8.88106 18.2671 8.88106Z"></path>
  </symbol>

  <symbol id="cross">
    <path fill="currentColor"
          d="M18.4 4L12 10.4L5.6 4L4 5.6L10.4 12L4 18.4L5.6 20L12 13.6L18.4 20L20 18.4L13.6 12L20 5.6L18.4 4Z"></path>
  </symbol>

  <symbol id="voice">
    <path fill="currentColor" fill-rule="evenodd" clip-rule="evenodd"
          d="M11.383 3.07904C11.009 2.92504 10.579 3.01004 10.293 3.29604L6 8.00204H3C2.45 8.00204 2 8.45304 2 9.00204V15.002C2 15.552 2.45 16.002 3 16.002H6L10.293 20.71C10.579 20.996 11.009 21.082 11.383 20.927C11.757 20.772 12 20.407 12 20.002V4.00204C12 3.59904 11.757 3.23204 11.383 3.07904ZM14 5.00195V7.00195C16.757 7.00195 19 9.24595 19 12.002C19 14.759 16.757 17.002 14 17.002V19.002C17.86 19.002 21 15.863 21 12.002C21 8.14295 17.86 5.00195 14 5.00195ZM14 9.00195C15.654 9.00195 17 10.349 17 12.002C17 13.657 15.654 15.002 14 15.002V13.002C14.551 13.002 15 12.553 15 12.002C15 11.451 14.551 11.002 14 11.002V9.00195Z"
          aria-hidden="true"></path>
  </symbol>

  <symbol id="microphone">
    <svg aria-hidden="false" width="20" height="20" viewBox="0 0 24 24">
      <path fill-rule="evenodd" clip-rule="evenodd"
            d="M14.99 11C14.99 12.66 13.66 14 12 14C10.34 14 9 12.66 9 11V5C9 3.34 10.34 2 12 2C13.66 2 15 3.34 15 5L14.99 11ZM12 16.1C14.76 16.1 17.3 14 17.3 11H19C19 14.42 16.28 17.24 13 17.72V21H11V17.72C7.72 17.23 5 14.41 5 11H6.7C6.7 14 9.24 16.1 12 16.1ZM12 4C11.2 4 11 4.66667 11 5V11C11 11.3333 11.2 12 12 12C12.8 12 13 11.3333 13 11V5C13 4.66667 12.8 4 12 4Z"
            fill="currentColor"></path>
      <path fill-rule="evenodd" clip-rule="evenodd"
            d="M14.99 11C14.99 12.66 13.66 14 12 14C10.34 14 9 12.66 9 11V5C9 3.34 10.34 2 12 2C13.66 2 15 3.34 15 5L14.99 11ZM12 16.1C14.76 16.1 17.3 14 17.3 11H19C19 14.42 16.28 17.24 13 17.72V22H11V17.72C7.72 17.23 5 14.41 5 11H6.7C6.7 14 9.24 16.1 12 16.1Z"
            fill="currentColor"></path>
    </svg>
  </symbol>

  <symbol id="headphone">
    <path
      d="M12 2.00305C6.486 2.00305 2 6.48805 2 12.0031V20.0031C2 21.1071 2.895 22.0031 4 22.0031H6C7.104 22.0031 8 21.1071 8 20.0031V17.0031C8 15.8991 7.104 15.0031 6 15.0031H4V12.0031C4 7.59105 7.589 4.00305 12 4.00305C16.411 4.00305 20 7.59105 20 12.0031V15.0031H18C16.896 15.0031 16 15.8991 16 17.0031V20.0031C16 21.1071 16.896 22.0031 18 22.0031H20C21.104 22.0031 22 21.1071 22 20.0031V12.0031C22 6.48805 17.514 2.00305 12 2.00305Z"
      fill="currentColor"></path>
  </symbol>

  <symbol id="settings">
    <path fill="currentColor" fill-rule="evenodd" clip-rule="evenodd"
          d="M19.738 10H22V14H19.739C19.498 14.931 19.1 15.798 18.565 16.564L20 18L18 20L16.565 18.564C15.797 19.099 14.932 19.498 14 19.738V22H10V19.738C9.069 19.498 8.203 19.099 7.436 18.564L6 20L4 18L5.436 16.564C4.901 15.799 4.502 14.932 4.262 14H2V10H4.262C4.502 9.068 4.9 8.202 5.436 7.436L4 6L6 4L7.436 5.436C8.202 4.9 9.068 4.502 10 4.262V2H14V4.261C14.932 4.502 15.797 4.9 16.565 5.435L18 3.999L20 5.999L18.564 7.436C19.099 8.202 19.498 9.069 19.738 10ZM12 16C14.2091 16 16 14.2091 16 12C16 9.79086 14.2091 8 12 8C9.79086 8 8 9.79086 8 12C8 14.2091 9.79086 16 12 16Z"></path>
  </symbol>

  <symbol id="hand-and-key">
    <path
      d="M23.5 41.9961C33.165 41.9961 41 34.162 41 24.4981C41 14.8341 33.165 7 23.5 7C13.835 7 6 14.8341 6 24.4981C6 34.162 13.835 41.9961 23.5 41.9961Z"
      fill="#718EF7"/>
    <path d="M31.5237 16.8877L28.4191 13.7834L26.5015 15.7008L29.6061 18.8051L31.5237 16.8877Z" fill="#F7E080"/>
    <path d="M31.5252 16.8838L28.4205 13.7795L30.5028 13.6343L31.6704 14.8017L31.5252 16.8838Z" fill="#F7E080"/>
    <path
      d="M28.7918 9.9113C29.1098 9.91263 29.4202 10.0078 29.6843 10.1849C29.9483 10.362 30.1542 10.6132 30.276 10.9068C30.3979 11.2005 30.4303 11.5235 30.3692 11.8355C30.308 12.1475 30.1561 12.4345 29.9325 12.6605C29.6265 12.9456 29.2218 13.1008 28.8036 13.0934C28.3854 13.0861 27.9864 12.9167 27.6907 12.621C27.3949 12.3252 27.2255 11.9263 27.2181 11.5082C27.2108 11.09 27.366 10.6853 27.6511 10.3794C27.9544 10.0786 28.3646 9.91025 28.7918 9.9113ZM28.7918 7.86688C27.9454 7.86606 27.125 8.15865 26.4701 8.69482C25.8153 9.231 25.3666 9.97759 25.2005 10.8074C25.0345 11.6372 25.1612 12.499 25.5593 13.2458C25.9573 13.9927 26.602 14.5785 27.3835 14.9034C28.165 15.2283 29.035 15.2722 29.8453 15.0278C30.6556 14.7833 31.356 14.2655 31.8273 13.5625C32.2986 12.8596 32.5116 12.015 32.4301 11.1727C32.3485 10.3303 31.9774 9.54234 31.3799 8.94289C31.0408 8.60178 30.6375 8.33111 30.1933 8.14644C29.7492 7.96177 29.2729 7.86677 28.7918 7.86688Z"
      fill="#F7E080"/>
    <path
      d="M33.8012 14.9201C34.2292 14.9205 34.6395 15.0908 34.9419 15.3935C35.2058 15.6578 35.37 16.0053 35.4063 16.377C35.4427 16.7486 35.349 17.1214 35.1413 17.4317C34.9336 17.7421 34.6247 17.9708 34.2673 18.079C33.9098 18.1871 33.5259 18.168 33.1809 18.0248C32.836 17.8816 32.5514 17.6233 32.3756 17.2938C32.1998 16.9644 32.1437 16.5841 32.2169 16.2179C32.29 15.8518 32.4879 15.5223 32.7768 15.2856C33.0657 15.0489 33.4277 14.9198 33.8012 14.9201ZM33.8012 12.8757C32.9548 12.8749 32.1344 13.1675 31.4795 13.7036C30.8247 14.2398 30.376 14.9864 30.2099 15.8162C30.0439 16.646 30.1706 17.5078 30.5687 18.2546C30.9667 19.0015 31.6114 19.5873 32.3929 19.9122C33.1744 20.2371 34.0444 20.281 34.8547 20.0366C35.665 19.7921 36.3654 19.2743 36.8367 18.5713C37.308 17.8684 37.521 17.0238 37.4394 16.1815C37.3579 15.3391 36.9867 14.5511 36.3893 13.9517C36.0509 13.6096 35.6478 13.3383 35.2034 13.1536C34.7591 12.9688 34.2824 12.8744 33.8012 12.8757Z"
      fill="#F7E080"/>
    <path
      d="M35.6468 8.04442C36.0747 8.0448 36.4851 8.2151 36.7875 8.51787C37.0111 8.74386 37.163 9.03086 37.2241 9.34284C37.2852 9.65483 37.2528 9.97792 37.131 10.2716C37.0092 10.5652 36.8033 10.8163 36.5393 10.9935C36.2752 11.1706 35.9647 11.2657 35.6468 11.2671C35.3288 11.2657 35.0184 11.1706 34.7543 10.9935C34.4903 10.8163 34.2844 10.5652 34.1626 10.2716C34.0407 9.97792 34.0083 9.65483 34.0694 9.34284C34.1306 9.03086 34.2825 8.74386 34.5061 8.51787C34.8085 8.2151 35.2188 8.0448 35.6468 8.04442ZM35.6468 6C35.1548 5.98113 34.6642 6.06172 34.2041 6.23693C33.7441 6.41215 33.3241 6.67839 32.9694 7.01972C32.6147 7.36105 32.3325 7.77044 32.1397 8.22339C31.947 8.67633 31.8477 9.16351 31.8477 9.65575C31.8477 10.148 31.947 10.6352 32.1397 11.0881C32.3325 11.5411 32.6147 11.9505 32.9694 12.2918C33.3241 12.6331 33.7441 12.8994 34.2041 13.0746C34.6642 13.2498 35.1548 13.3304 35.6468 13.3115C36.368 13.3087 37.0724 13.0928 37.6713 12.6909C38.2702 12.2891 38.7369 11.7192 39.0129 11.0529C39.2889 10.3866 39.3618 9.65365 39.2224 8.94607C39.083 8.23849 38.7376 7.58789 38.2295 7.07602C37.8917 6.73459 37.4895 6.46365 37.0461 6.27894C36.6027 6.09422 36.1271 5.99941 35.6468 6Z"
      fill="#F7E080"/>
    <path
      d="M33.0385 29.525L27.2249 35.3379C26.239 36.3236 24.9019 36.8774 23.5077 36.8774C22.1135 36.8774 20.7764 36.3236 19.7905 35.3379L15.9249 31.4728L29.5724 17.8268L33.0385 21.2925C34.1303 22.3842 34.7437 23.8649 34.7437 25.4088C34.7437 26.9526 34.1303 28.4333 33.0385 29.525Z"
      fill="#EBF0F7"/>
    <path
      d="M22.1952 23.9532L27.7158 23.0063L27.6135 24.4428C27.4141 26.3955 27.6625 28.368 28.3399 30.2102C28.683 31.0594 28.7685 31.9907 28.5858 32.8882C28.403 33.7856 27.9601 34.6093 27.3122 35.2567L26.8064 35.7947C25.9318 36.6677 24.7466 37.1579 23.5108 37.1579C22.275 37.1579 21.0898 36.6677 20.2151 35.7947L15.3026 30.8774L22.1952 23.9532Z"
      fill="#B2C1D1"/>
    <path
      d="M29.5936 18.8045L26.4997 15.6841L6.33838 35.8593L9.22779 38.7484C9.28517 38.8049 9.36248 38.8366 9.44302 38.8366C9.52356 38.8366 9.60086 38.8049 9.65824 38.7484L29.5936 18.8045Z"
      fill="#F7E080"/>
    <path
      d="M12.6607 30.6998L6.91949 36.4403L1.33438 30.8558C1.25125 30.7722 1.20459 30.659 1.20459 30.5411C1.20459 30.4232 1.25125 30.31 1.33438 30.2264L2.77639 28.7845C2.87661 28.682 2.9963 28.6006 3.12843 28.545C3.26056 28.4894 3.40247 28.4608 3.54582 28.4608C3.68918 28.4608 3.83108 28.4894 3.96322 28.545C4.09535 28.6006 4.21504 28.682 4.31526 28.7845L4.44977 28.9136C4.58085 29.0564 4.67452 29.2294 4.72241 29.4171C4.77029 29.6049 4.7709 29.8016 4.72419 29.9897C4.63949 30.3964 4.68933 30.8196 4.8662 31.1955C5.04306 31.5714 5.33736 31.8796 5.70471 32.0736C6.07207 32.2677 6.49256 32.337 6.90279 32.2712C7.31301 32.2055 7.69073 32.0081 7.97898 31.7089C8.26722 31.4098 8.45038 31.025 8.50082 30.6126C8.55126 30.2003 8.46625 29.7827 8.25861 29.4229C8.05098 29.0631 7.73197 28.7805 7.34969 28.6178C6.96742 28.4551 6.5426 28.4211 6.1393 28.5209C5.97422 28.5694 5.79928 28.5735 5.63208 28.5329C5.46489 28.4923 5.31135 28.4084 5.18692 28.2896L4.89099 27.9937C4.7152 27.8172 4.6165 27.5783 4.6165 27.3292C4.6165 27.0802 4.7152 26.8412 4.89099 26.6648L6.45676 25.1153C6.49773 25.0743 6.54638 25.0418 6.59993 25.0196C6.65348 24.9974 6.71087 24.986 6.76883 24.986C6.8268 24.986 6.88419 24.9974 6.93774 25.0196C6.99129 25.0418 7.03994 25.0743 7.08091 25.1153L12.6607 30.6998Z"
      fill="#F7E080"/>
    <path d="M11.1759 37.2353L8.07129 34.131L7.47776 34.7244L10.5824 37.8287L11.1759 37.2353Z" fill="#F5B312"/>
    <path d="M16.4287 31.98L13.3241 28.8757L12.0762 30.1235L15.1808 33.2278L16.4287 31.98Z" fill="#F5B312"/>
    <path
      d="M26.9811 24.7889L26.9849 24.7851C27.9641 23.806 27.9641 22.2186 26.9849 21.2395L23.2411 17.4961C22.2619 16.5171 20.6743 16.5171 19.6951 17.4961L19.6913 17.4999C18.7121 18.479 18.7121 20.0664 19.6913 21.0455L23.4352 24.7889C24.4144 25.768 26.0019 25.768 26.9811 24.7889Z"
      fill="#CBD5E0"/>
    <path
      d="M23.4337 28.3415L23.4375 28.3377C24.4167 27.3586 24.4167 25.7712 23.4375 24.7922L19.6936 21.0487C18.7144 20.0697 17.1269 20.0697 16.1477 21.0487L16.1439 21.0525C15.1647 22.0316 15.1647 23.619 16.1439 24.5981L19.8877 28.3415C20.8669 29.3206 22.4545 29.3206 23.4337 28.3415Z"
      fill="#CBD5E0"/>
    <path
      d="M19.8841 31.8887L19.8879 31.8849C20.8671 30.9058 20.8671 29.3184 19.8879 28.3393L16.1441 24.5959C15.1649 23.6168 13.5773 23.6168 12.5981 24.5959L12.5943 24.5997C11.6151 25.5788 11.6151 27.1662 12.5943 28.1453L16.3381 31.8887C17.3173 32.8678 18.9049 32.8678 19.8841 31.8887Z"
      fill="#CBD5E0"/>
    <path
      d="M30.3684 19.6599V19.6546C30.3684 18.2699 29.2458 17.1475 27.861 17.1475H23.4812C22.0964 17.1475 20.9738 18.2699 20.9738 19.6546V19.6599C20.9738 21.0446 22.0964 22.167 23.4812 22.167H27.861C29.2458 22.167 30.3684 21.0446 30.3684 19.6599Z"
      fill="#EBF0F7"/>
    <path d="M25.6423 37.7917L35.2758 28.1593L34.4311 27.3148L24.7976 36.9472L25.6423 37.7917Z"
          fill="url(#paint0_linear)"/>
    <path
      d="M27.178 39.3244L36.7163 29.7871C37.2143 29.2892 37.2152 28.4827 36.7182 27.9858C36.2213 27.4889 35.4147 27.4897 34.9167 27.9877L25.3783 37.525C24.8803 38.0229 24.8795 38.8294 25.3764 39.3263C25.8734 39.8232 26.6799 39.8224 27.178 39.3244Z"
      fill="#EBF0F7"/>
    <path
      d="M42.0605 12.9779C42.0605 12.7937 41.9123 12.6443 41.7296 12.6443C41.5468 12.6443 41.3987 12.7937 41.3987 12.9779V13.3061C41.3987 13.4903 41.5468 13.6397 41.7296 13.6397C41.9123 13.6397 42.0605 13.4903 42.0605 13.3061V12.9779Z"
      fill="#F7D036"/>
    <path
      d="M42.0605 15.6303C42.0605 15.4461 41.9123 15.2968 41.7296 15.2968C41.5468 15.2968 41.3987 15.4461 41.3987 15.6303V15.9585C41.3987 16.1427 41.5468 16.2921 41.7296 16.2921C41.9123 16.2921 42.0605 16.1427 42.0605 15.9585V15.6303Z"
      fill="#F7D036"/>
    <path
      d="M43.2174 14.8018C43.4017 14.8018 43.551 14.6536 43.551 14.4709C43.551 14.2882 43.4017 14.14 43.2174 14.14H42.8892C42.705 14.14 42.5556 14.2882 42.5556 14.4709C42.5556 14.6536 42.705 14.8018 42.8892 14.8018H43.2174Z"
      fill="#F7D036"/>
    <path
      d="M40.5647 14.8018C40.749 14.8018 40.8983 14.6536 40.8983 14.4709C40.8983 14.2882 40.749 14.14 40.5647 14.14H40.2365C40.0523 14.14 39.9029 14.2882 39.9029 14.4709C39.9029 14.6536 40.0523 14.8018 40.2365 14.8018H40.5647Z"
      fill="#F7D036"/>
    <path
      d="M43.3735 33.024C43.3735 32.7833 43.1796 32.5882 42.9403 32.5882C42.7011 32.5882 42.5072 32.7833 42.5072 33.024V33.4544C42.5072 33.6951 42.7011 33.8902 42.9403 33.8902C43.1796 33.8902 43.3735 33.6951 43.3735 33.4544V33.024Z"
      fill="#F47FFF"/>
    <path
      d="M43.3735 36.4941C43.3735 36.2535 43.1796 36.0583 42.9403 36.0583C42.7011 36.0583 42.5072 36.2535 42.5072 36.4941V36.9245C42.5072 37.1652 42.7011 37.3603 42.9403 37.3603C43.1796 37.3603 43.3735 37.1652 43.3735 36.9245V36.4941Z"
      fill="#F47FFF"/>
    <path
      d="M44.8907 35.402C45.1314 35.402 45.3265 35.2081 45.3265 34.9689C45.3265 34.7297 45.1314 34.5358 44.8907 34.5358H44.4602C44.2195 34.5358 44.0244 34.7297 44.0244 34.9689C44.0244 35.2081 44.2195 35.402 44.4602 35.402H44.8907Z"
      fill="#F47FFF"/>
    <path
      d="M41.4256 35.4074C41.6663 35.4074 41.8615 35.2135 41.8615 34.9743C41.8615 34.7351 41.6663 34.5412 41.4256 34.5412H40.9952C40.7545 34.5412 40.5593 34.7351 40.5593 34.9743C40.5593 35.2135 40.7545 35.4074 40.9952 35.4074H41.4256Z"
      fill="#F47FFF"/>
    <path
      d="M3.73413 17.0237L3.19607 18.1697C3.16618 18.2284 3.15564 18.295 3.16596 18.3601C3.17628 18.4252 3.20693 18.4853 3.25352 18.5319C3.3001 18.5785 3.36024 18.6091 3.42531 18.6194C3.49038 18.6297 3.55705 18.6192 3.61576 18.5893L4.76184 18.0513C4.80522 18.0328 4.85189 18.0233 4.89905 18.0233C4.9462 18.0233 4.99287 18.0328 5.03625 18.0513L6.18233 18.5893C6.24104 18.6192 6.30771 18.6297 6.37278 18.6194C6.43785 18.6091 6.49799 18.5785 6.54458 18.5319C6.59116 18.4853 6.62181 18.4252 6.63213 18.3601C6.64245 18.295 6.63191 18.2284 6.60202 18.1697L6.06396 17.0237C6.04546 16.9803 6.03592 16.9337 6.03592 16.8865C6.03592 16.8394 6.04546 16.7927 6.06396 16.7493L6.60202 15.6034C6.63191 15.5447 6.64245 15.478 6.63213 15.4129C6.62181 15.3479 6.59116 15.2878 6.54458 15.2412C6.49799 15.1946 6.43785 15.1639 6.37278 15.1536C6.30771 15.1433 6.24104 15.1539 6.18233 15.1837L5.03625 15.7217C4.99365 15.743 4.94668 15.7541 4.89905 15.7541C4.85141 15.7541 4.80444 15.743 4.76184 15.7217L3.61576 15.1837C3.55705 15.1539 3.49038 15.1433 3.42531 15.1536C3.36024 15.1639 3.3001 15.1946 3.25352 15.2412C3.20693 15.2878 3.17628 15.3479 3.16596 15.4129C3.15564 15.478 3.16618 15.5447 3.19607 15.6034L3.73413 16.7493C3.75263 16.7927 3.76217 16.8394 3.76217 16.8865C3.76217 16.9337 3.75263 16.9803 3.73413 17.0237Z"
      fill="#60CFAC"/>
    <defs>
      <linearGradient id="paint0_linear" x1="33.3571" y1="29.2359" x2="27.2776" y2="35.3106"
                      gradientUnits="userSpaceOnUse">
        <stop stop-color="#DAE1EA"/>
        <stop offset="1" stop-color="#BECBD8"/>
      </linearGradient>
    </defs>
  </symbol>

  <symbol id="lattice" viewBox="0 0 24 24">
    <path fill="currentColor" fill-rule="evenodd" clip-rule="evenodd"
          d="M5.88657 21C5.57547 21 5.3399 20.7189 5.39427 20.4126L6.00001 17H2.59511C2.28449 17 2.04905 16.7198 2.10259 16.4138L2.27759 15.4138C2.31946 15.1746 2.52722 15 2.77011 15H6.35001L7.41001 9H4.00511C3.69449 9 3.45905 8.71977 3.51259 8.41381L3.68759 7.41381C3.72946 7.17456 3.93722 7 4.18011 7H7.76001L8.39677 3.41262C8.43914 3.17391 8.64664 3 8.88907 3H9.87344C10.1845 3 10.4201 3.28107 10.3657 3.58738L9.76001 7H15.76L16.3968 3.41262C16.4391 3.17391 16.6466 3 16.8891 3H17.8734C18.1845 3 18.4201 3.28107 18.3657 3.58738L17.76 7H21.1649C21.4755 7 21.711 7.28023 21.6574 7.58619L21.4824 8.58619C21.4406 8.82544 21.2328 9 20.9899 9H17.41L16.35 15H19.7549C20.0655 15 20.301 15.2802 20.2474 15.5862L20.0724 16.5862C20.0306 16.8254 19.8228 17 19.5799 17H16L15.3632 20.5874C15.3209 20.8261 15.1134 21 14.8709 21H13.8866C13.5755 21 13.3399 20.7189 13.3943 20.4126L14 17H8.00001L7.36325 20.5874C7.32088 20.8261 7.11337 21 6.87094 21H5.88657ZM9.41045 9L8.35045 15H14.3504L15.4104 9H9.41045Z"></path>
  </symbol>

  <symbol id="plus-corner-fill">
    <!-- <path d="M256 512c141.4 0 256-114.6 256-256S397.4 0 256 0S0 114.6 0 256S114.6 512 256 512zM232 368V344 280H168 144V232h24 64V168 144h48v24 64h64 24v48H344 280v64 24H232z"/> -->
    <path fill="currentColor" d="M12 2.00098C6.486 2.00098 2 6.48698 2 12.001C2 17.515 6.486 22.001 12 22.001C17.514 22.001 22 17.515 22 12.001C22 6.48698 17.514 2.00098 12 2.00098ZM17 13.001H13V17.001H11V13.001H7V11.001H11V7.00098H13V11.001H17V13.001Z"></path>
  </symbol>

  <symbol id="gift">
    <path fill="currentColor" fill-rule="evenodd" clip-rule="evenodd" d="M16.886 7.999H20C21.104 7.999 22 8.896 22 9.999V11.999H2V9.999C2 8.896 2.897 7.999 4 7.999H7.114C6.663 7.764 6.236 7.477 5.879 7.121C4.709 5.951 4.709 4.048 5.879 2.879C7.012 1.746 8.986 1.746 10.121 2.877C11.758 4.514 11.979 7.595 11.998 7.941C11.9991 7.9525 11.9966 7.96279 11.9941 7.97304C11.992 7.98151 11.99 7.98995 11.99 7.999H12.01C12.01 7.98986 12.0079 7.98134 12.0058 7.97287C12.0034 7.96282 12.0009 7.95286 12.002 7.942C12.022 7.596 12.242 4.515 13.879 2.878C15.014 1.745 16.986 1.746 18.121 2.877C19.29 4.049 19.29 5.952 18.121 7.121C17.764 7.477 17.337 7.764 16.886 7.999ZM7.293 5.707C6.903 5.316 6.903 4.682 7.293 4.292C7.481 4.103 7.732 4 8 4C8.268 4 8.519 4.103 8.707 4.292C9.297 4.882 9.641 5.94 9.825 6.822C8.945 6.639 7.879 6.293 7.293 5.707ZM14.174 6.824C14.359 5.941 14.702 4.883 15.293 4.293C15.481 4.103 15.732 4 16 4C16.268 4 16.519 4.103 16.706 4.291C17.096 4.682 17.097 5.316 16.707 5.707C16.116 6.298 15.057 6.642 14.174 6.824ZM3 13.999V19.999C3 21.102 3.897 21.999 5 21.999H11V13.999H3ZM13 13.999V21.999H19C20.104 21.999 21 21.102 21 19.999V13.999H13Z"></path>
  </symbol>

  <symbol id="gif">
    <path fill="currentColor" d="M2 2C0.895431 2 0 2.89543 0 4V20C0 21.1046 0.89543 22 2 22H22C23.1046 22 24 21.1046 24 20V4C24 2.89543 23.1046 2 22 2H2ZM9.76445 11.448V15.48C8.90045 16.044 7.88045 16.356 6.74045 16.356C4.11245 16.356 2.66045 14.628 2.66045 12.072C2.66045 9.504 4.23245 7.764 6.78845 7.764C7.80845 7.764 8.66045 8.004 9.32045 8.376L9.04445 10.164C8.42045 9.768 7.68845 9.456 6.83645 9.456C5.40845 9.456 4.71245 10.512 4.71245 12.06C4.71245 13.62 5.43245 14.712 6.86045 14.712C7.31645 14.712 7.64045 14.616 7.97645 14.448V12.972H6.42845V11.448H9.76445ZM11.5481 7.92H13.6001V16.2H11.5481V7.92ZM20.4724 7.92V9.636H17.5564V11.328H19.8604V13.044H17.5564V16.2H15.5164V7.92H20.4724Z"></path>
  </symbol>

  <symbol id="smile-sticker">
    <path fill="currentColor" class="" fill-rule="evenodd" clip-rule="evenodd" d="M12.0002 0.662583V5.40204C12.0002 6.83974 13.1605 7.99981 14.5986 7.99981H19.3393C19.9245 7.99981 20.222 7.29584 19.8055 6.8794L13.1209 0.196569C12.7043 -0.219868 12.0002 0.0676718 12.0002 0.662583ZM14.5759 10.0282C12.0336 10.0282 9.96986 7.96441 9.96986 5.42209V0.0583083H1.99397C0.897287 0.0583083 0 0.955595 0 2.05228V18.0041C0 19.1007 0.897287 19.998 1.99397 19.998H17.9457C19.0424 19.998 19.9397 19.1007 19.9397 18.0041V10.0282H14.5759ZM11.9998 12.2201C11.9998 13.3245 11.1046 14.2198 10.0002 14.2198C8.8958 14.2198 8.00052 13.3245 8.00052 12.2201H6.66742C6.66742 14.0607 8.15955 15.5529 10.0002 15.5529C11.8408 15.5529 13.3329 14.0607 13.3329 12.2201H11.9998ZM4.44559 13.331C4.44559 13.9446 3.94821 14.442 3.33467 14.442C2.72112 14.442 2.22375 13.9446 2.22375 13.331C2.22375 12.7175 2.72112 12.2201 3.33467 12.2201C3.94821 12.2201 4.44559 12.7175 4.44559 13.331ZM16.6657 14.442C17.2793 14.442 17.7766 13.9446 17.7766 13.331C17.7766 12.7175 17.2793 12.2201 16.6657 12.2201C16.0522 12.2201 15.5548 12.7175 15.5548 13.331C15.5548 13.9446 16.0522 14.442 16.6657 14.442Z"></path>
  </symbol>
</svg>
